<svg width="24" height="24" viewBox="0 0 24 24" fill="none" xmlns="http://www.w3.org/2000/svg">
    <path
        d="M12 22C11.7348 22 11.4805 21.8946 11.293 21.707C11.1054 21.5195 11 21.2652 11 21V19C11 18.7348 11.1054 18.4805 11.293 18.293C11.4805 18.1054 11.7348 18 12 18V22ZM7.05371 15.9375C7.18645 15.9364 7.31855 15.9615 7.44141 16.0117C7.56421 16.062 7.6757 16.1366 7.76953 16.2305C7.86337 16.3243 7.938 16.4358 7.98828 16.5586C8.03855 16.6815 8.06364 16.8135 8.0625 16.9463C8.06135 17.0789 8.03373 17.2102 7.98145 17.332C7.92904 17.454 7.85235 17.565 7.75684 17.6572L6.34277 19.0713C6.25063 19.1666 6.14037 19.2426 6.01855 19.2949C5.89668 19.3473 5.76545 19.3748 5.63281 19.376C5.50005 19.3771 5.368 19.352 5.24512 19.3018C5.12222 19.2515 5.01088 19.1769 4.91699 19.083C4.8231 18.9891 4.74852 18.8778 4.69824 18.7549C4.64797 18.632 4.62287 18.5 4.62402 18.3672C4.62523 18.2345 4.65272 18.1033 4.70508 17.9814C4.75744 17.8596 4.83337 17.7494 4.92871 17.6572L6.34277 16.2432C6.43502 16.1477 6.54596 16.071 6.66797 16.0186C6.78985 15.9663 6.92109 15.9387 7.05371 15.9375ZM12 7C13.3261 7 14.5975 7.52716 15.5352 8.46484C16.4728 9.40253 17 10.6739 17 12C17 13.3261 16.4728 14.5975 15.5352 15.5352C14.5975 16.4728 13.3261 17 12 17C10.6739 17 9.40253 16.4728 8.46484 15.5352C7.52716 14.5975 7 13.3261 7 12C7 10.6739 7.52716 9.40253 8.46484 8.46484C9.40253 7.52716 10.6739 7 12 7ZM5 11C5.26522 11 5.51949 11.1054 5.70703 11.293C5.89457 11.4805 6 11.7348 6 12C6 12.2652 5.89457 12.5195 5.70703 12.707C5.51949 12.8946 5.26522 13 5 13H3C2.73478 13 2.48051 12.8946 2.29297 12.707C2.10543 12.5195 2 12.2652 2 12C2 11.7348 2.10543 11.4805 2.29297 11.293C2.48051 11.1054 2.73478 11 3 11H5ZM5.64258 4.6582C5.90214 4.65399 6.15335 4.75121 6.34277 4.92871L7.75781 6.34277C7.93997 6.53138 8.04134 6.78468 8.03906 7.04688C8.03666 7.3089 7.93139 7.55982 7.74609 7.74512C7.56079 7.93041 7.30988 8.03569 7.04785 8.03809C6.78565 8.04036 6.53235 7.93899 6.34375 7.75684L4.92969 6.34277C4.75206 6.15348 4.65515 5.90214 4.65918 5.64258C4.6633 5.38302 4.76768 5.1348 4.95117 4.95117C5.13472 4.76749 5.38295 4.66246 5.64258 4.6582ZM12 6C11.7348 6 11.4805 5.89457 11.293 5.70703C11.1054 5.51949 11 5.26522 11 5V3C11 2.73478 11.1054 2.48051 11.293 2.29297C11.4805 2.10543 11.7348 2 12 2V6Z"
        fill="black" />
</svg>
